<?xml version="1.0" standalone="no"?>
<!DOCTYPE svg PUBLIC "-//W3C//DTD SVG 20010904//EN"
 "http://www.w3.org/TR/2001/REC-SVG-20010904/DTD/svg10.dtd">
<svg version="1.0" xmlns="http://www.w3.org/2000/svg"
 width="1024.000000pt" height="1024.000000pt" viewBox="0 0 1024.000000 1024.000000"
 preserveAspectRatio="xMidYMid meet">
<g transform="translate(0.000000,1024.000000) scale(0.100000,-0.100000)"
fill="#FF0600" stroke="none">
<path d="M9534 9904 c-689 -342 -7688 -3850 -8878 -4451 -357 -181 -651 -334-654 -341 -2 -8 1712 -869 4870 -2445 5148 -2571 5355 -2674 5363 -2665 5 5-182 455 -308 743 -19 44 -197 456 -395 915 -198 459 -615 1424 -927 2144-311 720 -564 1317 -562 1325 3 9 183 428 402 931 1207 2780 1795 4145 1795 4166 0 8 -6 14 -13 14 -7 0 -319 -151 -693 -336z"/>
</g>
</svg>
