<?xml version="1.0" standalone="no"?>
<!DOCTYPE svg PUBLIC "-//W3C//DTD SVG 20010904//EN"
 "http://www.w3.org/TR/2001/REC-SVG-20010904/DTD/svg10.dtd">
<svg version="1.0" xmlns="http://www.w3.org/2000/svg"
 width="980.000000pt" height="980.000000pt" viewBox="0 0 980.000000 980.000000"
 preserveAspectRatio="xMidYMid meet">
<metadata>
Created by potrace 1.15, written by Peter Selinger 2001-2017
</metadata>
<g transform="translate(0.000000,980.000000) scale(0.100000,-0.100000)"
fill="#000000" stroke="none">
<path d="M5515 9790 c-128 -9 -180 -43 -205 -129 -17 -58 -31 -935 -21 -1318 8 -331 9 -343 32 -390 19 -38 34 -53 74 -73 50 -25 52 -25 363 -28 l312 -4 0-104 0 -104 -679 0 -679 0 -5 493 c-3 396 -7 502 -19 545 -30 103 -64 121-262 135 -201 13 -2182 13 -2383 0 -163 -12 -197 -22 -234 -73 -36 -48 -41-115 -46 -611 l-5 -486 -237 -6 c-267 -7 -308 -13 -406 -61 -188 -92 -320-289 -366 -544 -71 -392 -256 -1587 -634 -4093 l-115 -765 0 -700 c1 -760 6-903 40 -1004 65 -197 232 -364 430 -430 61 -21 93 -23 475 -31 560 -11 7311-11 7815 1 414 9 583 21 654 46 60 21 179 116 242 192 30 37 71 100 91 140 32 63 37 86 45 185 6 64 8 459 5 922 l-6 810 -190 1240 c-448 2921 -544 3523-580 3628 -59 170 -189 331 -328 404 -49 27 -79 35 -159 43 -74 7 -708 29-866 30 -16 0 -18 11 -18 95 l0 95 33 0 c143 1 599 22 627 30 20 5 51 26 70 45 l35 36 5 857 5 857 -54 61 -53 61 -397 6 c-498 9 -2285 6 -2406 -3z m2513-384 c1 -2 5 -267 9 -590 l6 -586 -1176 0 -1177 0 0 596 0 597 1168 -7 c642-4 1168 -9 1170 -10z m-3718 -2546 l0 -1560 -1072 2 -1073 3 -3 1558 -2 1557 1075 0 1075 0 0 -1560z m2950 885 l0 -105 -395 0 -395 0 0 105 0 105 395 0 395 0 0 -105z m-5497 -1287 c4 -442 7 -947 7 -1123 l0 -319 52 -53 52 -53 1361 0 1361 0 51 53 52 52 7 1123 7 1122 1366 -1 c751 0 1596 -4 1876 -8 449-7 515 -10 552 -26 87 -35 143 -133 174 -301 30 -166 199 -1268 454 -2959 129-858 238 -1572 241 -1588 l6 -27 -4479 2 c-3974 3 -4478 5 -4476 18 159 1080 676 4468 702 4595 23 113 53 176 102 219 64 55 155 71 410 75 l116 1 6 -802zm7676 -4770 c0 -145 -4 -445 -8 -668 -9 -455 -8 -450 -84 -528 -60 -63 -87-73 -211 -84 -68 -6 -1753 -11 -4308 -15 l-4197 -5 -61 33 c-34 18 -79 53-101 77 -69 79 -70 87 -79 642 -5 272 -9 566 -9 653 l-1 157 4530 0 4530 0 -1-262z"/>
    <path d="M2550 7652 l0 -202 688 0 687 0 -4 193 c-1 105 -4 193 -5 194 0 1-308 5 -684 9 l-682 7 0 -201z"/>
<path d="M2550 6860 l0 -200 685 0 685 0 0 200 0 200 -685 0 -685 0 0 -200z"/>
<path d="M2550 6080 l0 -200 685 0 685 0 0 200 0 200 -685 0 -685 0 0 -200z"/>
<path d="M5639 6840 c-80 -10 -155 -46 -219 -106 -61 -57 -97 -125 -111 -210
-16 -104 -24 -742 -10 -833 25 -157 113 -277 265 -358 l79 -43 1251 0 1251 0
76 45 c99 57 174 140 196 215 20 71 14 182 -33 520 -70 515 -83 561 -172 648
-28 26 -84 66 -126 90 l-76 42 -1153 -1 c-633 -1 -1182 -5 -1218 -9z m2276
-382 c15 -15 37 -133 80 -430 25 -175 45 -322 45 -328 0 -13 -2324 -10 -2337
3 -7 8 -18 745 -11 748 40 16 2207 23 2223 7z"/>
<path d="M5435 4866 c-16 -7 -51 -32 -77 -56 l-48 -42 0 -268 0 -267 44 -41
c78 -72 78 -72 336 -72 254 0 268 3 340 62 l40 33 -1 285 0 285 -44 35 c-24
19 -59 40 -77 47 -49 18 -473 17 -513 -1z"/>
<path d="M6638 4871 c-59 -9 -97 -36 -123 -87 -18 -36 -20 -59 -20 -289 0
-373 1 -374 387 -375 351 0 371 20 372 380 0 263 -19 325 -109 361 -35 13
-432 22 -507 10z"/>
<path d="M7825 4871 c-75 -8 -100 -24 -128 -81 -21 -43 -22 -57 -22 -275 0
-255 4 -291 41 -335 46 -54 104 -63 363 -58 252 4 264 7 311 76 25 35 25 39
28 281 2 151 -1 260 -7 281 -6 20 -26 51 -46 70 -35 34 -36 34 -153 41 -137 9
-303 8 -387 0z"/>
<path d="M5479 3700 c-140 -25 -170 -96 -172 -395 -1 -188 14 -258 67 -311 43
-43 71 -46 358 -42 260 3 261 4 312 72 20 26 21 40 21 289 0 242 -2 265 -20
302 -15 29 -33 47 -70 65 -48 23 -59 25 -250 27 -110 1 -221 -2 -246 -7z"/>
<path d="M6655 3701 c-47 -9 -94 -32 -116 -57 -38 -43 -44 -92 -44 -334 0
-258 -1 -254 69 -332 l25 -28 263 1 c176 0 274 4 298 12 21 8 45 28 64 55 l30
42 4 266 5 266 -39 40 c-68 69 -75 71 -309 74 -115 2 -228 -1 -250 -5z"/>
<path d="M7838 3700 c-68 -12 -120 -40 -140 -75 -26 -46 -41 -206 -36 -378 6
-164 15 -201 64 -250 44 -44 79 -49 346 -45 231 3 248 4 274 24 68 51 69 52
72 311 5 409 2 413 -338 418 -107 2 -216 0 -242 -5z"/>
<path d="M4810 1552 c-168 -56 -245 -135 -276 -283 -20 -94 -12 -194 21 -266
30 -66 107 -143 179 -178 48 -24 66 -26 165 -27 96 0 117 3 163 25 75 34 152
107 185 175 26 52 28 66 28 172 0 110 -1 118 -33 182 -39 81 -90 128 -189 175
-90 44 -164 51 -243 25z"/>
</g>
</svg>
